<svg xmlns="http://www.w3.org/2000/svg" viewBox="0 0 128 128" role="img" aria-labelledby="title desc">
  <title id="title">Ultimate Prompt Library</title>
  <desc id="desc">Open book and guiding spark in navy, ivory and gold.</desc>
  <defs>
    <linearGradient id="navy" x1="0" y1="0" x2="1" y2="1">
      <stop offset="0" stop-color="#193c59"/>
      <stop offset="1" stop-color="#0b2034"/>
    </linearGradient>
    <linearGradient id="gold" x1="0" y1="0" x2="1" y2="1">
      <stop offset="0" stop-color="#f4d996"/>
      <stop offset="1" stop-color="#c18b2f"/>
    </linearGradient>
  </defs>
  <rect x="3" y="3" width="122" height="122" rx="34" fill="url(#navy)"/>
  <rect x="4.5" y="4.5" width="119" height="119" rx="32.5" fill="none" stroke="#ffffff" stroke-opacity=".1" stroke-width="3"/>
  <path d="M27 41c13-5 25-3 37 5v48c-12-8-24-10-37-5V41Z" fill="#e4b85a" fill-opacity=".09" stroke="url(#gold)" stroke-linecap="round" stroke-linejoin="round" stroke-width="5"/>
  <path d="M101 41c-13-5-25-3-37 5v48c12-8 24-10 37-5V41Z" fill="#f7f9fc" fill-opacity=".06" stroke="url(#gold)" stroke-linecap="round" stroke-linejoin="round" stroke-width="5"/>
  <path d="M64 47v47" fill="none" stroke="#f8f3e7" stroke-linecap="round" stroke-width="4"/>
  <path d="M36 55c7-2 13-1 19 2M36 67c7-2 13-1 19 2M92 55c-7-2-13-1-19 2M92 67c-7-2-13-1-19 2" fill="none" stroke="#dce6ed" stroke-linecap="round" stroke-width="3.5"/>
  <path d="m92 25 2.5 5.5 5.5 2.5-5.5 2.5-2.5 5.5-2.5-5.5-5.5-2.5 5.5-2.5L92 25Z" fill="url(#gold)"/>
</svg>
